<svg width="1268" height="1158" viewBox="0 0 1268 1158" fill="none" xmlns="http://www.w3.org/2000/svg">
<path d="M610 4.46252C592.8 12.8625 588.8 30.0625 588.4 96.4625L588.31 110.259C588.12 139.343 571.614 165.856 545.6 178.863C505.2 198.863 453.6 234.463 404.4 276.063C357.2 316.463 310.4 342.863 264.4 355.663C215.2 369.263 190.4 365.263 153.6 338.063C128 319.263 109.2 318.463 92.4 335.263C83.6 344.063 80.8 350.863 80.8 362.063C80.8 377.263 89.2 387.263 134.4 426.063C146 436.063 148.8 441.263 148.8 452.863C148.8 464.863 57.2 717.263 8.8 839.663C4 851.663 0 869.663 0 879.263C0 921.263 52 988.463 104.8 1014.46C192.4 1058.06 285.6 1044.46 357.2 976.863C387.2 948.463 413.6 902.463 413.6 879.263C413.6 871.663 404 841.263 392.8 811.663C381.6 782.063 367.2 744.063 361.2 727.663C354.8 711.263 330.4 647.263 307.2 586.063C284 524.463 264.8 470.063 264.8 464.863C264.8 447.663 272 440.463 301.6 429.263C360 407.263 389.2 390.463 444.8 345.263C513.6 289.663 570.4 251.663 584.8 251.663C587.6 251.663 588.8 365.663 588.8 608.463C588.8 998.463 589.2 990.463 565.6 1024.46C540.4 1061.26 506.8 1075.26 436.8 1078.46C411.6 1079.66 387.6 1082.46 384 1084.46C380 1086.46 374 1093.66 370.4 1100.46C362.4 1116.06 365.6 1135.26 379.2 1148.06C385.887 1154.24 394.653 1157.66 403.753 1157.66H650.8H897.847C906.947 1157.66 915.713 1154.24 922.4 1148.06C941.6 1130.06 938.4 1095.26 917.2 1083.66C912 1081.26 857.6 1079.66 769.2 1079.66H653.161C642.281 1079.66 635.44 1067.93 640.8 1058.46C647.2 1046.46 656.4 1022.86 660.8 1005.66C668.4 975.663 668.8 961.663 668.8 652.463C668.8 432.863 670.4 322.063 673.2 304.063C682.4 250.063 711.2 208.863 754.4 188.063C792.4 169.263 816.4 166.463 900.8 169.663C982.4 172.463 992.8 175.263 992.8 194.863C992.8 200.863 972.8 258.063 948.4 321.663C924 385.663 902.4 442.063 900.8 447.663C898.8 453.263 887.2 483.663 875.2 515.663C862 549.663 852.8 580.063 852.8 589.263C852.8 612.463 878 656.863 908 686.463C948.8 726.863 999.6 747.663 1058.8 747.663C1121.2 747.663 1170.4 726.863 1214.8 682.063C1243.2 653.263 1263.2 619.663 1267.6 594.063C1269.2 584.063 1260 556.063 1227.6 471.263C1124.4 202.063 1112 166.863 1114 152.863C1115.6 142.863 1124.4 130.863 1143.6 110.463C1158.4 94.4625 1174.4 75.2626 1178.4 67.2626C1193.6 38.0626 1176.4 7.6626 1144.4 7.6626C1130.4 7.6626 1125.6 10.4625 1097.6 38.8625C1071.2 65.6625 1062.8 71.2626 1038.8 79.6626C1011.6 89.2626 1007.2 89.6626 902.8 89.6626C785.6 89.6626 778.4 90.8626 716.4 115.263C663.6 136.063 668.8 140.063 668.8 81.6626C668.8 28.4626 664.8 12.0626 649.2 3.6626C639.2 -1.5374 621.6 -1.13748 610 4.46252ZM1068.8 167.663C1072.8 169.663 1080 182.063 1084.8 194.463C1089.6 207.263 1097.6 228.463 1102.8 241.663C1108 254.863 1121.6 290.863 1132.8 321.663C1144.4 352.463 1169.6 419.263 1189.2 470.463C1208.8 521.263 1224.8 564.863 1224.8 567.263C1224.8 570.463 1175.2 571.663 1058.8 571.663C967.6 571.663 892.8 570.863 892.8 570.063C892.8 568.863 907.2 530.463 994.4 299.663C1024.8 218.463 1043.2 175.263 1048.8 170.863C1059.2 162.463 1059.2 162.463 1068.8 167.663ZM220.4 461.263C222.8 464.063 256.8 551.663 296.4 656.063C335.6 760.463 369.2 848.863 370.8 852.463C373.6 859.263 364 859.663 207.2 859.663C115.6 859.663 40.8 858.863 40.8 857.663C40.8 856.463 46 841.663 52.4 824.463C59.2 807.663 91.6 720.863 124.8 631.663C158 542.463 188.4 466.463 191.6 462.463C199.2 454.463 214 453.663 220.4 461.263Z" fill="white"/>
</svg>
